<?xml version="1.0" encoding="UTF-8" standalone="no"?>
<!-- Created with Inkscape (http://www.inkscape.org/) -->

<svg
   version="1.1"
   id="svg824"
   width="150.15564"
   height="71.946251"
   viewBox="0 0 150.15564 71.946251"
   sodipodi:docname="tunafin-blue.svg"
   inkscape:version="1.1.1 (3bf5ae0d25, 2021-09-20)"
   xmlns:inkscape="http://www.inkscape.org/namespaces/inkscape"
   xmlns:sodipodi="http://sodipodi.sourceforge.net/DTD/sodipodi-0.dtd"
   xmlns="http://www.w3.org/2000/svg"
   xmlns:svg="http://www.w3.org/2000/svg">
  <defs
     id="defs828" />
  <sodipodi:namedview
     id="namedview826"
     pagecolor="#ffffff"
     bordercolor="#666666"
     borderopacity="1.0"
     inkscape:pageshadow="2"
     inkscape:pageopacity="0.0"
     inkscape:pagecheckerboard="0"
     showgrid="false"
     fit-margin-top="0"
     fit-margin-left="0"
     fit-margin-right="0"
     fit-margin-bottom="0"
     inkscape:zoom="3.7484076"
     inkscape:cx="46.553101"
     inkscape:cy="36.015293"
     inkscape:window-width="1920"
     inkscape:window-height="1010"
     inkscape:window-x="1697"
     inkscape:window-y="-1086"
     inkscape:window-maximized="1"
     inkscape:current-layer="g830" />
  <g
     inkscape:groupmode="layer"
     inkscape:label="Image"
     id="g830"
     transform="translate(-1.9701145,-3.6796142)">
    <path
       style="fill:#2c7cc0;fill-opacity:1;stroke:none;stroke-width:1;stroke-linecap:round"
       d="M 25.38468,57.287594 C 23.101703,56.771465 19.668321,55.399492 15.673322,53.406951 12.345896,51.747369 9.9856461,50.37734 6.7361937,48.219313 3.6434847,46.165383 2.5970642,45.303851 2.2007881,44.485254 1.9343895,43.934948 1.9172905,43.800644 2.0550751,43.340761 c 0.2707593,-0.903714 1.0136666,-1.097102 5.0812885,-1.322716 2.6801297,-0.148657 3.4681394,-0.242163 3.4681394,-0.411531 0,-0.103913 -0.6539849,-0.548545 -4.7388269,-3.221833 -3.2772288,-2.144754 -3.4882013,-2.88905 -1.3192886,-4.654362 3.5012947,-2.84976 9.9652985,-6.762476 14.8529195,-8.990599 3.721886,-1.696699 8.453907,-3.414554 12.47295,-4.528028 2.52648,-0.699961 3.844879,-1.000621 7.062659,-1.610633 1.312334,-0.248787 2.397048,-0.469076 2.410476,-0.48953 0.01343,-0.02045 0.459094,-0.847532 0.990372,-1.837952 2.431455,-4.532779 6.351754,-9.5284271 9.106028,-11.6038345 1.145749,-0.8633478 1.809629,-1.1267243 2.335813,-0.9266699 0.500695,0.190364 1.316999,0.7818341 2.816833,2.0409929 3.289948,2.7620191 5.264797,3.8547049 10.033854,5.5517405 6.609907,2.352089 8.699426,3.530012 12.033045,6.783381 l 1.970212,1.922783 0.568252,-0.509445 c 0.312539,-0.280194 1.228534,-1.127907 2.035543,-1.883806 2.811881,-2.633794 5.472808,-4.483757 8.070094,-5.61059 1.761013,-0.764016 4.924692,-1.823481 6.518277,-2.1828662 1.670993,-0.3768416 2.018681,-0.2842459 2.018681,0.5376122 0,0.780042 -0.133658,1.027592 -1.266587,2.345868 -2.054099,2.390145 -3.979186,5.632863 -4.394982,7.403143 -0.280085,1.192472 -0.26852,2.612395 0.02605,3.198701 0.33031,0.657438 0.796008,0.923392 3.39978,1.941567 2.849493,1.114261 7.768203,3.200931 10.476973,4.444662 3.07833,1.413412 8.47828,4.366552 9.50038,5.195593 l 0.33273,0.269881 -0.33348,0.35669 c -0.40917,0.437654 -2.22512,1.666823 -2.46254,1.666823 -0.0949,0 -1.93567,-0.876442 -4.09057,-1.947647 -5.64184,-2.804572 -10.02779,-4.779536 -14.913272,-6.715349 -3.303793,-1.309089 -4.456752,-2.122026 -5.226152,-3.684898 -0.35847,-0.72816 -0.432961,-1.051939 -0.489149,-2.126134 -0.08216,-1.570685 0.09888,-2.725974 0.76275,-4.867518 0.312795,-1.009029 0.469056,-1.717383 0.395757,-1.79403 -0.401819,-0.420168 -3.507296,1.940292 -7.216846,5.485493 -0.857948,0.819938 -1.836402,1.652834 -2.174343,1.850881 -0.579568,0.339648 -0.67576,0.354734 -1.69497,0.265827 -0.594293,-0.05184 -2.226947,-0.330148 -3.62812,-0.618461 -7.917903,-1.629231 -14.160425,-2.268048 -22.199546,-2.271753 -7.714855,-0.0035 -12.626797,0.573653 -19.554452,2.297861 -9.50268,2.365101 -19.046257,6.548216 -25.4597694,11.159455 -1.6595686,1.193211 -1.7724847,1.541545 -0.6669885,2.057595 0.8541243,0.398708 6.7447759,4.34057 7.5637189,5.061432 1.623289,1.428876 1.274653,2.870383 -0.814346,3.367086 -0.499474,0.118759 -1.917083,0.308982 -3.150244,0.422715 -1.233161,0.113734 -2.397389,0.265826 -2.5871747,0.337982 l -0.3450647,0.131193 0.3195453,0.340844 c 0.7176761,0.765512 3.4829371,2.39815 7.2715921,4.293223 6.583107,3.29285 9.827877,4.183164 13.019832,3.572442 3.579623,-0.684895 6.641024,-3.483602 7.81844,-7.147551 0.635933,-1.978927 0.755266,-2.783569 0.751738,-5.068819 -0.0033,-2.157403 -0.01439,-2.241828 -0.558957,-4.268479 -0.973598,-3.623296 -1.008035,-4.345395 -0.241573,-5.065448 0.809823,-0.76079 2.244491,0.313387 2.985741,2.235512 0.931458,2.415354 1.365065,4.695071 1.375501,7.231805 0.01795,4.36263 -1.289106,8.039404 -4.01958,11.307163 -1.456072,1.742588 -4.360825,3.635106 -6.291908,4.09933 -1.27897,0.30746 -5.526939,0.390184 -6.677629,0.130039 z M 73.297791,18.414225 c 0,-0.223306 -1.183112,-0.950695 -2.714615,-1.668972 C 69.081197,16.040822 68.171565,15.691826 64.293968,14.332288 60.9859,13.172435 58.44398,11.797793 55.562215,9.6102563 55.009072,9.1903673 54.212562,8.6193431 53.792194,8.3413136 53.057957,7.8556928 53.014988,7.8442581 52.699978,8.0506607 51.451481,8.868707 46.219626,16.145996 46.219626,17.064555 c 0,0.08671 2.21346,0.125447 6.369371,0.111461 7.625332,-0.02566 12.392837,0.262908 17.907605,1.083926 1.923247,0.286325 2.801189,0.33468 2.801189,0.154283 z"
       id="path8201" />
    <path
       style="fill:#2c7cc0;fill-opacity:1;stroke:none;stroke-width:1;stroke-linecap:round"
       d="m 57.157604,75.422747 c -1.104794,-0.297451 -2.996434,-1.28674 -4.272277,-2.234316 -2.888638,-2.145407 -5.028295,-4.682435 -7.332589,-8.694378 -1.545784,-2.69132 -1.532816,-2.683056 -5.120232,-3.263489 -2.673412,-0.43255 -5.94552,-1.137972 -7.47762,-1.612075 l -0.926168,-0.286598 0.325913,-0.250002 c 0.507601,-0.389372 3.511642,-1.70936 4.251072,-1.86794 0.545657,-0.117023 0.908566,-0.0937 2.037596,0.130955 0.755531,0.150334 2.454152,0.453301 3.774713,0.673259 3.735126,0.622139 3.998628,0.76159 4.972044,2.631332 1.548598,2.974556 3.495729,5.762702 5.416913,7.756619 1.601297,1.661919 2.456738,2.34518 2.691855,2.15005 0.290367,-0.240984 0.459984,-1.416695 0.480372,-3.329716 0.02742,-2.572908 -0.06209,-2.791312 -1.994491,-4.866635 -1.243592,-1.335568 -1.62914,-1.964554 -1.62914,-2.657792 0,-0.625581 0.259243,-0.743652 1.632801,-0.743652 2.032481,0 10.12686,-0.588273 13.040096,-0.947711 3.426455,-0.422759 11.502609,-1.964763 13.876461,-2.649474 2.373019,-0.684472 3.328818,-0.506544 5.587682,1.040183 2.249607,1.540389 3.113532,2.09497 4.576872,2.938034 1.695808,0.976995 4.331353,2.286767 4.60147,2.286767 0.271597,0 0.125295,-0.565098 -0.567429,-2.19171 -0.932266,-2.189093 -1.185108,-3.168966 -1.189881,-4.611324 -0.0037,-1.121077 0.03875,-1.355127 0.367895,-2.027876 0.577624,-1.180621 1.434626,-1.850689 3.893489,-3.044224 7.364479,-3.574729 8.885209,-4.334227 10.804589,-5.396162 6.04395,-3.343935 11.19533,-6.813313 16.74248,-11.275795 4.27355,-3.437923 12.48837,-11.379804 13.62062,-13.168076 l 0.26474,-0.418129 -0.64455,-0.50918 c -0.35451,-0.28005 -1.60338,-1.122224 -2.77527,-1.871499 -2.46181,-1.574021 -2.94195,-1.939037 -2.81685,-2.141455 0.0498,-0.08057 0.7104,-0.385915 1.46803,-0.678553 2.14161,-0.827218 15.12869,-5.4309719 16.02525,-5.6807495 0.44019,-0.1226339 0.9139,-0.2563333 1.0527,-0.2971097 0.23501,-0.069041 0.24595,-0.017479 0.15913,0.7498574 -0.0513,0.453198 -0.42197,2.6958958 -0.82376,4.9837728 -0.4018,2.287876 -1.08496,6.231989 -1.51813,8.764694 -0.78281,4.57695 -0.95116,5.332635 -1.18799,5.332635 -0.15227,0 -1.86934,-1.878937 -3.87081,-4.235704 l -1.50146,-1.767991 -3.4041,3.466877 c -6.04503,6.1565 -10.67609,10.123078 -16.91747,14.490077 -5.65446,3.956338 -10.56633,6.745634 -19.60059,11.130545 -2.63687,1.279842 -5.022884,2.492432 -5.302256,2.694645 -0.466309,0.33752 -0.507948,0.419966 -0.507948,1.005747 0,2.040717 1.321476,4.406052 4.188474,7.497027 1.72319,1.857813 2.10955,2.425519 2.18498,3.210511 0.0847,0.881843 -0.13468,0.981202 -1.96261,0.888771 -3.336881,-0.168734 -8.128366,-1.679868 -11.80517,-3.723102 -2.140738,-1.189629 -4.115566,-2.448787 -5.23179,-3.33581 -0.89664,-0.712527 -1.029889,-0.775289 -1.645985,-0.775289 -0.368701,0 -2.455495,0.387979 -4.637321,0.862178 -8.135278,1.768119 -11.617592,2.274991 -18.406423,2.679168 -0.82535,0.04914 -1.500637,0.102444 -1.500637,0.11846 0,0.01602 0.151744,0.402563 0.33721,0.858995 0.731151,1.799378 0.720803,3.799089 -0.04979,9.620536 -0.41412,3.128466 -0.3135,2.979845 -1.75471,2.591821 z"
       id="path8240" />
    <path
       style="fill:#2c7cc0;fill-opacity:1;stroke:none;stroke-width:1;stroke-linecap:round"
       d="m 144.96857,64.549844 c -0.23457,-0.150254 -1.07493,-1.061721 -1.86746,-2.025482 -5.50165,-6.690336 -10.00944,-11.37764 -15.38021,-15.992691 -1.50397,-1.292348 -2.9746,-2.560581 -3.26805,-2.818297 l -0.53356,-0.468573 0.33347,-0.365463 c 0.6193,-0.6787 2.28602,-1.932914 2.44486,-1.839763 2.46691,1.446738 11.79783,10.561231 16.70559,16.318114 1.64765,1.932722 3.22557,4.041819 3.54275,4.735344 0.30071,0.657531 0.32081,1.640131 0.0417,2.038627 -0.2546,0.363484 -0.87222,0.696651 -1.28584,0.69362 -0.16871,-0.0012 -0.49867,-0.125182 -0.73325,-0.275436 z"
       id="path8279" />
    <path
       style="fill:#2c7cc0;fill-opacity:1;stroke:none;stroke-width:1;stroke-linecap:round"
       d="m 22.107905,37.711676 c -1.165338,-0.441336 -1.890967,-1.476339 -2.001636,-2.855041 -0.05705,-0.710711 -0.0158,-0.93653 0.280911,-1.537908 0.459842,-0.932012 1.065567,-1.338666 2.1061,-1.413931 1.395259,-0.100924 2.463155,0.48018 2.999615,1.632263 0.514311,1.104517 0.37322,2.293667 -0.380653,3.208245 -0.724054,0.878403 -2.082685,1.315419 -3.004337,0.966372 z"
       id="path8318" />
  </g>
</svg>
